<svg width="155" height="24" viewBox="0 0 155 24" fill="none" xmlns="http://www.w3.org/2000/svg">
<path d="M7.62153 12.144H13.7019C14.6266 12.144 15.4065 11.8449 16.0416 11.2467C16.6861 10.6486 17.0084 9.79808 17.0084 8.69523C17.0084 7.88212 16.6721 7.15312 15.9996 6.50824C15.3271 5.85401 14.5612 5.52689 13.7019 5.52689H5.04366V23.6958H4.03493V4.51751H13.7019C14.8414 4.51751 15.8455 4.94276 16.7141 5.79326C17.5828 6.63441 18.0171 7.60174 18.0171 8.69523C18.0171 10.0411 17.5968 11.1206 16.7562 11.9337C15.9156 12.7468 14.8975 13.1533 13.7019 13.1533H7.62153V12.144ZM7.62153 14.1627H13.7019C15.159 14.1627 16.4106 13.6534 17.4567 12.6346C18.5028 11.6066 19.0258 10.2934 19.0258 8.69523C19.0258 7.32135 18.4888 6.1157 17.4146 5.07828C16.3499 4.03151 15.1123 3.50813 13.7019 3.50813H3.0262V23.6958H2.01746V2.49875H13.7019C14.8134 2.49875 15.8548 2.7838 16.8262 3.35392C17.8069 3.92403 18.5868 4.69041 19.1659 5.65307C19.745 6.60637 20.0345 7.62043 20.0345 8.69523C20.0345 10.5364 19.4088 12.0785 18.1572 13.3216C16.9149 14.5553 15.4299 15.1721 13.7019 15.1721H7.62153V14.1627ZM7.62153 16.1815H13.7019C15.0096 16.1815 16.2238 15.859 17.3446 15.2142C18.4654 14.5693 19.3621 13.672 20.0345 12.5225C20.707 11.3636 21.0433 10.0878 21.0433 8.69523C21.0433 7.4335 20.707 6.25122 20.0345 5.14837C19.3714 4.03618 18.4747 3.1483 17.3446 2.48473C16.2144 1.82115 15.0002 1.48936 13.7019 1.48936H1.00873V23.6958H0V0.47998H13.7019C15.1683 0.47998 16.546 0.858499 17.835 1.61554C19.1239 2.36323 20.1466 3.37261 20.9032 4.64368C21.6691 5.90541 22.052 7.25593 22.052 8.69523C22.052 10.3588 21.6924 11.8215 20.9732 13.0832C20.2634 14.345 19.2967 15.331 18.0731 16.0413L20.679 23.6958H19.6142L17.1204 16.5179C16.7468 16.6675 16.462 16.7703 16.2658 16.8264L18.6055 23.6958H17.5407L15.2571 17.0647C15.173 17.0834 14.8741 17.1161 14.3604 17.1628L16.532 23.6958H15.4672L13.3237 17.1909H12.413L14.4585 23.6958H13.3937L11.3342 17.1909H7.62153V16.1815ZM7.06113 23.6958H6.05239V6.53628H13.7019C14.3277 6.53628 14.8648 6.75124 15.3131 7.18116C15.7708 7.60173 15.9996 8.10643 15.9996 8.69523C15.9996 10.3215 15.2337 11.1346 13.7019 11.1346H7.62153V10.1252H13.7019C14.1036 10.1252 14.4165 10.0224 14.6406 9.81677C14.8741 9.60181 14.9909 9.22796 14.9909 8.69523C14.9909 8.36812 14.8648 8.09708 14.6126 7.88212C14.3698 7.65781 14.0662 7.54566 13.7019 7.54566H7.06113V23.6958Z" fill="#5BFFDA"/>
<path d="M29.2532 23.6958H28.2445V0.47998H29.2532V23.6958ZM27.2358 23.6958H26.227V0.47998H27.2358V23.6958ZM25.2183 23.6958H24.2096V0.47998H25.2183V23.6958ZM31.2707 18.6489H42.0025V19.6582H31.2707V20.6676H42.0025V21.677H31.2707V22.6864H42.0025V23.6958H30.262V0.47998H42.0025V1.48936H31.2707V2.49875H42.0025V3.50813H31.2707V4.51751H42.0025V5.52689H31.2707V9.56442H36.7767V10.5738H31.2707V11.5832H36.7767V12.5926H31.2707V13.602H36.7767V14.6113H31.2707V18.6489Z" fill="#5BFFDA"/>
<path d="M62.037 15.6067C62.037 15.2422 61.925 14.9992 61.7008 14.8777C61.486 14.7562 61.1684 14.6955 60.7481 14.6955H54.2474V13.6861H60.7481C62.2799 13.6861 63.0458 14.3263 63.0458 15.6067C63.0458 16.3264 62.8356 16.8451 62.4153 17.1628C61.995 17.4806 61.4393 17.6395 60.7481 17.6395H54.2474V16.6301H60.7481C61.6074 16.6301 62.037 16.289 62.037 15.6067ZM53.687 23.6958H52.6782V6.53628H60.7481C61.3832 6.53628 61.925 6.73254 62.3733 7.12508C62.8216 7.50827 63.0458 7.9896 63.0458 8.56906C63.0458 9.33544 62.8356 9.89154 62.4153 10.2373C61.995 10.5738 61.4393 10.742 60.7481 10.742H54.2474V9.73265H60.7481C61.6074 9.73265 62.037 9.34479 62.037 8.56906C62.037 8.25129 61.9156 8.00362 61.6728 7.82604C61.4299 7.63912 61.1217 7.54566 60.7481 7.54566H53.687V23.6958ZM54.2474 11.7514H60.7481C61.6728 11.7514 62.4527 11.4757 63.0878 10.9243C63.7323 10.3635 64.0545 9.57844 64.0545 8.56906C64.0545 7.75595 63.7183 7.04564 63.0458 6.43814C62.3826 5.83064 61.6167 5.52689 60.7481 5.52689H51.6695V23.6958H50.6608V4.51751H60.7481C61.8969 4.51751 62.901 4.92407 63.7603 5.73718C64.6289 6.54095 65.0632 7.48491 65.0632 8.56906C65.0632 9.41956 64.8624 10.1626 64.4608 10.7981C64.0685 11.4337 63.5361 11.9243 62.8636 12.2701C64.33 12.7935 65.0632 13.859 65.0632 15.4665C65.0632 16.7376 64.6429 17.7563 63.8023 18.5227C62.9617 19.2797 61.9436 19.6582 60.7481 19.6582H54.2474V18.6489H60.7481C61.6728 18.6489 62.4527 18.3732 63.0878 17.8217C63.7323 17.261 64.0545 16.4759 64.0545 15.4665C64.0545 14.7842 63.8117 14.1814 63.326 13.658C62.8403 13.1346 62.1258 12.8309 61.1824 12.7468C61.089 12.7561 60.9442 12.7608 60.7481 12.7608H54.2474V11.7514ZM67.0807 8.56906C67.0807 9.87752 66.6184 11.0598 65.6937 12.1159C66.6184 13.144 67.0807 14.2609 67.0807 15.4665C67.0807 16.6348 66.7865 17.7002 66.1981 18.6629C65.619 19.6162 64.8437 20.3592 63.8724 20.8919C62.9103 21.4153 61.8689 21.677 60.7481 21.677H54.2474V20.6676H60.7481C62.2052 20.6676 63.4567 20.1816 64.5028 19.2096C65.5489 18.2283 66.072 16.9806 66.072 15.4665C66.072 14.9244 65.9319 14.3263 65.6517 13.672C65.3808 13.0085 65.0025 12.5038 64.5168 12.158C65.5536 11.186 66.072 9.98967 66.072 8.56906C66.072 7.20452 65.5396 6.02224 64.4748 5.0222C63.41 4.01282 62.1678 3.50813 60.7481 3.50813H49.6521V23.6958H48.6433V2.49875H60.7481C61.8596 2.49875 62.901 2.77446 63.8724 3.32588C64.8531 3.86795 65.633 4.61097 66.2121 5.55493C66.7912 6.48954 67.0807 7.49425 67.0807 8.56906ZM66.8425 12.172C67.6738 11.0598 68.0894 9.85883 68.0894 8.56906C68.0894 7.30733 67.7532 6.13439 67.0807 5.05024C66.4176 3.95674 65.5209 3.09223 64.3908 2.45669C63.2606 1.8118 62.0464 1.48936 60.7481 1.48936H47.6346V23.6958H46.6259V0.47998H60.7481C62.2238 0.47998 63.6015 0.84448 64.8811 1.57348C66.17 2.30248 67.1928 3.29317 67.9493 4.54555C68.7152 5.78858 69.0982 7.12976 69.0982 8.56906C69.0982 9.94294 68.7106 11.1486 67.9353 12.186C68.7106 13.2608 69.0982 14.3543 69.0982 15.4665C69.0982 16.7189 68.874 17.8685 68.4257 18.9152C67.9774 19.9527 67.3702 20.8172 66.6044 21.5088C65.8478 22.2004 64.9652 22.7378 63.9564 23.121C62.9477 23.5042 61.8783 23.6958 60.7481 23.6958H54.2474V22.6864H60.7481C61.7288 22.6864 62.6675 22.5041 63.5642 22.1396C64.4608 21.7658 65.2407 21.2611 65.9038 20.6256C66.567 19.99 67.0947 19.2237 67.487 18.3264C67.8886 17.4292 68.0894 16.4759 68.0894 15.4665C68.0894 15.0179 67.982 14.4805 67.7672 13.8543C67.5617 13.2188 67.2535 12.658 66.8425 12.172Z" fill="white"/>
<path d="M78.9893 12.144H85.0698C85.9944 12.144 86.7743 11.8449 87.4095 11.2467C88.0539 10.6486 88.3762 9.79808 88.3762 8.69523C88.3762 7.88212 88.0399 7.15312 87.3674 6.50824C86.6949 5.85401 85.9291 5.52689 85.0698 5.52689H76.4115V23.6958H75.4027V4.51751H85.0698C86.2093 4.51751 87.2133 4.94276 88.082 5.79326C88.9506 6.63441 89.3849 7.60174 89.3849 8.69523C89.3849 10.0411 88.9646 11.1206 88.124 11.9337C87.2834 12.7468 86.2653 13.1533 85.0698 13.1533H78.9893V12.144ZM78.9893 14.1627H85.0698C86.5268 14.1627 87.7784 13.6534 88.8245 12.6346C89.8706 11.6066 90.3936 10.2934 90.3936 8.69523C90.3936 7.32135 89.8566 6.1157 88.7825 5.07828C87.7177 4.03151 86.4801 3.50813 85.0698 3.50813H74.394V23.6958H73.3853V2.49875H85.0698C86.1812 2.49875 87.2227 2.7838 88.194 3.35392C89.1747 3.92403 89.9546 4.69041 90.5337 5.65307C91.1128 6.60637 91.4024 7.62043 91.4024 8.69523C91.4024 10.5364 90.7766 12.0785 89.525 13.3216C88.2828 14.5553 86.7977 15.1721 85.0698 15.1721H78.9893V14.1627ZM78.9893 16.1815H85.0698C86.3774 16.1815 87.5916 15.859 88.7124 15.2142C89.8332 14.5693 90.7299 13.672 91.4024 12.5225C92.0749 11.3636 92.4111 10.0878 92.4111 8.69523C92.4111 7.4335 92.0749 6.25122 91.4024 5.14837C90.7392 4.03618 89.8426 3.1483 88.7124 2.48473C87.5823 1.82115 86.368 1.48936 85.0698 1.48936H72.3766V23.6958H71.3678V0.47998H85.0698C86.5362 0.47998 87.9138 0.858499 89.2028 1.61554C90.4917 2.36323 91.5144 3.37261 92.271 4.64368C93.0369 5.90541 93.4198 7.25593 93.4198 8.69523C93.4198 10.3588 93.0602 11.8215 92.341 13.0832C91.6312 14.345 90.6645 15.331 89.4409 16.0413L92.0468 23.6958H90.9821L88.4882 16.5179C88.1146 16.6675 87.8298 16.7703 87.6336 16.8264L89.9733 23.6958H88.9086L86.6249 17.0647C86.5408 17.0834 86.242 17.1161 85.7282 17.1628L87.8998 23.6958H86.835L84.6915 17.1909H83.7808L85.8263 23.6958H84.7615L82.702 17.1909H78.9893V16.1815ZM78.4289 23.6958H77.4202V6.53628H85.0698C85.6955 6.53628 86.2326 6.75124 86.6809 7.18116C87.1386 7.60173 87.3674 8.10643 87.3674 8.69523C87.3674 10.3215 86.6015 11.1346 85.0698 11.1346H78.9893V10.1252H85.0698C85.4714 10.1252 85.7843 10.0224 86.0084 9.81677C86.2419 9.60181 86.3587 9.22796 86.3587 8.69523C86.3587 8.36812 86.2326 8.09708 85.9804 7.88212C85.7376 7.65781 85.434 7.54566 85.0698 7.54566H78.4289V23.6958Z" fill="white"/>
<path d="M105.595 16.8824L106.001 15.8731H109.447L109.854 16.8824H105.595ZM104.81 18.9012L105.202 17.8918H110.232L110.666 18.9012H104.81ZM104.026 20.92L104.418 19.9106H111.031L111.451 20.92H104.026ZM95.8296 23.6958H94.7368L103.913 0.47998H105.006L114.169 23.6958H113.09L104.46 1.83984L95.8296 23.6958ZM104.586 4.23713L105.16 5.52689L97.9871 23.6958H96.9084L104.586 4.23713ZM105.707 6.90077L106.239 8.28868L100.173 23.6958H99.0799L105.707 6.90077ZM106.772 9.67658L107.304 11.0925L102.33 23.6958H101.252L106.772 9.67658ZM120.684 23.6958H119.591L110.428 0.47998H111.507L120.684 23.6958ZM109.335 0.47998L118.512 23.6958H117.433L108.257 0.47998H109.335ZM107.164 0.47998L116.34 23.6958H115.248L106.085 0.47998H107.164Z" fill="white"/>
<path d="M128.501 0.47998H129.51V23.6958H128.501V0.47998ZM126.484 0.47998H127.493V23.6958H126.484V0.47998ZM124.466 0.47998H125.475V23.6958H124.466V0.47998ZM122.449 0.47998H123.458V23.6958H122.449V0.47998Z" fill="white"/>
<path d="M148.648 12.5225L147.639 10.8542V0.47998H148.648V12.5225ZM150.665 15.831L149.657 14.1347V0.47998H150.665V15.831ZM152.683 19.1816L151.674 17.4713V0.47998H152.683V19.1816ZM138.224 11.6533L139.233 13.3216V23.6958H138.224V11.6533ZM136.207 8.34475L137.216 10.0411V23.6958H136.207V8.34475ZM134.189 4.99416L135.198 6.70451V23.6958H134.189V4.99416ZM134.54 0.47998H135.717L149.979 23.6958H148.802L134.54 0.47998ZM136.921 0.47998H138.112L152.361 23.6958H151.156L136.921 0.47998ZM139.289 0.47998H140.466L153.692 22.0555V0.47998H154.7V23.6958C154.7 23.6958 154.303 23.6958 153.509 23.6958L139.289 0.47998ZM133.181 2.12023V23.6958H132.172V0.47998C132.172 0.47998 132.574 0.47998 133.377 0.47998L147.597 23.6958H146.434L133.181 2.12023Z" fill="white"/>
</svg>
